<svg width="95" height="85" viewBox="0 0 95 85" fill="none" xmlns="http://www.w3.org/2000/svg">
<path d="M13.7 55.2C12.4 55.2 11.6 53.8 12.3 52.7L24.8 32.9C25.4 31.9 26.9 31.9 27.6 32.9L33.9 43L45.4 24.6C46 23.6 47.5 23.6 48.2 24.6L60.2 43.8C64.4 40.7 69.6 38.9 75.2 38.9C76.2 38.9 77.1 39 78.1 39.1V2.9C78.1 1.3 76.8 0 75.2 0H2.9C1.3 0 0 1.3 0 2.9V64.4C0 66 1.3 67.3 2.9 67.3H49.7C49.6 66.3 49.5 65.4 49.5 64.4C49.5 61.1 50.1 58 51.2 55.1H13.7V55.2ZM25 12.8C28.4 12.8 31.3 15.6 31.3 19.1C31.3 22.6 28.5 25.4 25 25.4C21.5 25.4 18.7 22.6 18.7 19.1C18.7 15.6 21.5 12.8 25 12.8Z" fill="black"/>
<path d="M75.0999 44.6C64.0999 44.6 55.2 53.5 55.2 64.5C55.2 75.5 64.0999 84.4 75.0999 84.4C86.0999 84.4 95 75.5 95 64.5C95 53.5 86.0999 44.6 75.0999 44.6ZM61.0999 64.5C61.0999 61.7 62 59 63.4 56.8L82.8 76.2C80.6 77.6 77.9999 78.5 75.0999 78.5C67.3999 78.6 61.0999 72.2 61.0999 64.5ZM86.9 72.2L67.5 52.7C69.7 51.3 72.2999 50.4 75.1999 50.4C82.9999 50.4 89.3 56.7 89.3 64.5C89.2 67.3 88.3 69.9 86.9 72.2Z" fill="black"/>
</svg>
